<?xml version="1.0" encoding="UTF-8" standalone="no"?>
<!DOCTYPE svg PUBLIC "-//W3C//DTD SVG 1.1//EN" "http://www.w3.org/Graphics/SVG/1.1/DTD/svg11.dtd">
<svg xmlns="http://www.w3.org/2000/svg" version="1.1" viewBox="0.00 0.00 1024.00 585.00">
<g stroke-width="2.00" fill="none" stroke-linecap="butt">
<path stroke="#e4a888" vector-effect="non-scaling-stroke" d="
  M 737.81 330.43
  L 736.16 329.72
  A 0.65 0.64 8.6 0 0 735.26 330.38
  Q 735.82 335.46 732.52 337.76
  A 0.99 0.98 -21.2 0 0 732.11 338.68
  Q 733.38 350.07 736.05 360.30
  A 0.36 0.35 -15.5 0 0 736.50 360.55
  L 736.83 360.46
  A 0.50 0.49 -17.7 0 0 737.16 359.83
  Q 736.23 357.07 736.89 354.45
  A 0.54 0.54 0.0 0 1 737.74 354.15
  L 738.41 354.65
  A 0.38 0.38 0.0 0 0 739.00 354.43
  L 740.41 348.47"
/>
<path stroke="#b56b5d" vector-effect="non-scaling-stroke" d="
  M 598.72 370.69
  Q 598.21 371.41 597.73 371.41"
/>
<path stroke="#b56b5d" vector-effect="non-scaling-stroke" d="
  M 572.52 356.47
  L 572.66 353.78"
/>
<path stroke="#b56b5d" vector-effect="non-scaling-stroke" d="
  M 568.91 332.26
  L 568.94 330.78"
/>
<path stroke="#c48d95" vector-effect="non-scaling-stroke" d="
  M 527.81 259.83
  Q 528.22 258.71 527.55 257.31
  A 0.65 0.65 0.0 0 0 526.31 257.63
  Q 526.32 257.87 527.26 259.85
  A 0.30 0.30 0.0 0 0 527.81 259.83"
/>
<path stroke="#b56b5d" vector-effect="non-scaling-stroke" d="
  M 528.2373 263.1052
  A 0.66 0.35 -97.2 0 0 527.9728 263.8039
  A 0.66 0.35 -97.2 0 0 528.4027 264.4148
  A 0.66 0.35 -97.2 0 0 528.6672 263.7161
  A 0.66 0.35 -97.2 0 0 528.2373 263.1052"
/>
<path stroke="#b56b5d" vector-effect="non-scaling-stroke" d="
  M 524.9355 279.7162
  A 1.06 0.77 -96.2 0 0 524.2845 280.8532
  A 1.06 0.77 -96.2 0 0 525.1645 281.8238
  A 1.06 0.77 -96.2 0 0 525.8155 280.6868
  A 1.06 0.77 -96.2 0 0 524.9355 279.7162"
/>
<path stroke="#b56b5d" vector-effect="non-scaling-stroke" d="
  M 531.6317 335.1820
  A 1.35 0.85 -113.5 0 0 531.3905 336.7589
  A 1.35 0.85 -113.5 0 0 532.7083 337.6580
  A 1.35 0.85 -113.5 0 0 532.9495 336.0811
  A 1.35 0.85 -113.5 0 0 531.6317 335.1820"
/>
<path stroke="#e4a888" vector-effect="non-scaling-stroke" d="
  M 723.5777 256.9196
  A 1.81 0.68 -108.1 0 0 723.4936 258.8513
  A 1.81 0.68 -108.1 0 0 724.7023 260.3604
  A 1.81 0.68 -108.1 0 0 724.7864 258.4287
  A 1.81 0.68 -108.1 0 0 723.5777 256.9196"
/>
<path stroke="#d6864f" vector-effect="non-scaling-stroke" d="
  M 724.75 263.35
  L 725.07 264.74
  A 0.39 0.39 0.0 0 0 725.82 264.77
  Q 725.89 264.61 725.03 263.23
  A 0.16 0.15 -68.0 0 0 724.75 263.35"
/>
<path stroke="#e4a888" vector-effect="non-scaling-stroke" d="
  M 727.9203 273.8000
  A 1.46 0.65 -83.3 0 0 727.1044 275.1742
  A 1.46 0.65 -83.3 0 0 727.5797 276.7000
  A 1.46 0.65 -83.3 0 0 728.3956 275.3258
  A 1.46 0.65 -83.3 0 0 727.9203 273.8000"
/>
<path stroke="#e4a888" vector-effect="non-scaling-stroke" d="
  M 727.95 280.30
  L 727.58 281.70
  A 0.53 0.53 0.0 0 1 726.86 282.05
  L 725.94 281.67
  A 0.86 0.86 0.0 0 1 725.48 280.54
  L 726.05 279.18
  A 0.65 0.64 85.2 0 0 725.11 278.38
  Q 724.11 279.02 724.33 280.30
  Q 724.87 283.41 724.76 288.08
  A 3.18 3.17 -81.9 0 0 727.12 291.23
  L 729.33 291.81
  A 1.32 1.32 0.0 0 0 730.98 290.35
  L 730.02 283.11
  Q 730.01 283.07 730.00 283.03
  Q 729.36 280.98 728.84 280.17
  A 0.49 0.49 0.0 0 0 727.95 280.30"
/>
<path stroke="#e4a888" vector-effect="non-scaling-stroke" d="
  M 721.9670 280.2039
  A 1.21 0.89 -98.7 0 0 721.2702 281.5346
  A 1.21 0.89 -98.7 0 0 722.3330 282.5961
  A 1.21 0.89 -98.7 0 0 723.0298 281.2654
  A 1.21 0.89 -98.7 0 0 721.9670 280.2039"
/>
<path stroke="#e4a888" vector-effect="non-scaling-stroke" d="
  M 730.89 320.27
  Q 730.44 320.54 730.32 321.19
  Q 729.62 324.99 732.00 326.37
  A 0.46 0.45 -52.2 0 1 732.09 327.09
  L 730.99 328.20
  A 0.71 0.71 0.0 0 0 731.72 329.37
  Q 733.88 328.61 733.84 325.68
  A 1.27 1.05 -39.6 0 1 733.92 325.26
  L 734.80 322.86
  A 1.45 1.39 56.4 0 0 734.89 322.36
  Q 734.98 316.78 733.50 312.72
  A 0.78 0.64 39.6 0 1 733.45 312.46
  L 733.25 306.38
  A 0.88 0.88 0.0 0 0 731.64 305.93
  Q 731.30 306.44 731.37 308.26
  A 1.13 1.12 -23.3 0 1 731.03 309.11
  L 729.11 311.04
  A 2.46 2.44 64.6 0 0 728.40 313.05
  Q 728.69 315.81 729.21 318.49
  A 1.03 0.92 77.9 0 0 730.34 319.31
  Q 731.14 319.12 731.30 318.44
  A 0.42 0.42 0.0 0 1 731.82 318.13
  L 731.91 318.16
  A 0.37 0.36 -73.4 0 1 732.16 318.63
  Q 731.79 319.73 730.89 320.27"
/>
<path stroke="#d6864f" vector-effect="non-scaling-stroke" d="
  M 726.3601 312.1308
  A 1.00 0.67 -87.7 0 0 725.6505 313.1031
  A 1.00 0.67 -87.7 0 0 726.2799 314.1292
  A 1.00 0.67 -87.7 0 0 726.9895 313.1569
  A 1.00 0.67 -87.7 0 0 726.3601 312.1308"
/>
<path stroke="#d6864f" vector-effect="non-scaling-stroke" d="
  M 728.7665 335.8428
  A 1.36 0.96 -119.2 0 0 728.5920 337.4983
  A 1.36 0.96 -119.2 0 0 730.0935 338.2172
  A 1.36 0.96 -119.2 0 0 730.2680 336.5617
  A 1.36 0.96 -119.2 0 0 728.7665 335.8428"
/>
<path stroke="#efd9be" vector-effect="non-scaling-stroke" d="
  M 598.72 286.91
  Q 598.50 287.90 598.15 294.28
  Q 598.08 295.49 596.62 297.09
  A 1.78 1.72 74.5 0 0 596.23 297.81
  L 595.62 300.13
  A 0.35 0.35 0.0 0 0 595.87 300.56
  L 596.17 300.64
  A 0.47 0.46 14.0 0 0 596.74 300.30
  Q 597.39 297.61 599.09 296.14
  A 1.78 1.77 67.0 0 0 599.70 294.62
  L 598.88 286.92
  A 0.08 0.08 0.0 0 0 598.72 286.91"
/>
<path stroke="#efd9be" vector-effect="non-scaling-stroke" d="
  M 598.34 301.70
  Q 598.36 303.36 597.27 303.74
  Q 595.99 304.19 596.11 304.77
  Q 596.13 304.89 597.22 305.74
  A 1.57 1.55 14.9 0 1 597.82 306.76
  Q 598.24 309.60 597.03 312.01
  A 0.49 0.49 0.0 0 0 597.60 312.70
  Q 599.33 312.24 599.46 310.77
  Q 599.77 307.10 599.57 302.43
  A 1.09 1.08 17.6 0 0 599.14 301.61
  L 598.89 301.42
  A 0.35 0.34 17.6 0 0 598.34 301.70"
/>
<path stroke="#efd9be" vector-effect="non-scaling-stroke" d="
  M 598.47 315.05
  L 597.97 317.50
  A 0.29 0.29 0.0 0 0 598.19 317.84
  L 598.46 317.90
  A 1.38 1.37 11.6 0 0 600.09 316.83
  L 600.15 316.50
  A 1.38 1.37 11.6 0 0 599.08 314.88
  L 598.81 314.82
  A 0.29 0.29 0.0 0 0 598.47 315.05"
/>
<path stroke="#efd9be" vector-effect="non-scaling-stroke" d="
  M 601.22 340.42
  L 600.08 319.29
  A 0.05 0.05 0.0 0 0 600.02 319.24
  L 600.02 319.24
  A 5.33 1.97 86.9 0 0 598.34 324.67
  L 598.92 335.26
  A 5.33 1.97 86.9 0 0 601.17 340.47
  L 601.17 340.47
  A 0.05 0.05 0.0 0 0 601.22 340.42"
/>
<path stroke="#efd9be" vector-effect="non-scaling-stroke" d="
  M 595.82 326.90
  Q 595.46 328.19 595.57 328.59
  A 0.46 0.46 0.0 0 0 596.46 328.58
  Q 596.57 328.12 596.22 326.90
  A 0.21 0.21 0.0 0 0 595.82 326.90"
/>
</g>
<path fill="#8a1f34" d="
  M 539.87 333.12
  L 539.24 332.49
  A 0.45 0.45 0.0 0 0 538.50 332.64
  L 537.12 335.93
  A 1.42 1.40 -87.5 0 1 536.26 336.73
  Q 535.55 336.97 535.19 337.36
  Q 534.92 337.64 535.02 338.65
  Q 536.07 349.89 539.05 359.29
  A 0.31 0.31 0.0 0 0 539.66 359.20
  Q 539.67 356.12 539.55 354.77
  Q 539.45 353.68 540.61 353.10
  A 0.55 0.51 82.2 0 1 541.34 353.69
  Q 541.26 354.24 541.47 354.90
  A 0.36 0.36 0.0 0 0 542.00 355.10
  Q 542.39 354.87 542.49 354.58
  A 0.39 0.38 -67.2 0 0 542.31 354.13
  Q 542.20 354.06 541.97 353.74
  A 0.74 0.74 0.0 0 1 541.89 353.04
  Q 542.90 350.50 541.84 347.56
  A 0.40 0.39 -15.0 0 1 542.15 347.03
  L 542.45 346.99
  A 0.25 0.24 78.9 0 1 542.73 347.18
  L 543.89 352.40
  A 0.58 0.21 64.9 0 1 543.90 352.51
  Q 543.84 355.61 544.77 358.19
  A 1.18 1.17 53.6 0 1 544.61 359.28
  Q 544.10 360.00 542.64 359.79
  A 0.63 0.62 9.5 0 0 541.93 360.29
  Q 541.83 360.82 542.36 361.48
  Q 542.65 361.84 543.55 361.99
  Q 544.35 362.13 544.81 362.34
  A 0.75 0.73 -83.0 0 1 545.21 362.87
  L 546.91 372.13
  A 4.17 3.92 43.2 0 1 546.97 373.11
  L 546.56 378.43
  A 0.51 0.44 59.2 0 1 546.53 378.60
  Q 545.57 381.47 546.00 384.31
  A 0.38 0.38 0.0 0 1 545.35 384.63
  L 543.34 382.62
  A 0.97 0.94 54.7 0 0 542.26 382.42
  Q 541.48 382.77 540.94 383.78
  A 0.83 0.82 -74.0 0 1 540.17 384.21
  L 535.59 383.99
  A 0.48 0.46 16.0 0 0 535.17 384.21
  L 533.24 387.57
  A 0.77 0.77 0.0 0 1 531.98 387.67
  Q 530.29 385.59 528.28 384.35
  A 0.34 0.34 0.0 0 0 527.77 384.55
  Q 527.61 385.09 527.39 385.36
  A 0.77 0.77 0.0 0 1 526.39 385.54
  Q 524.45 384.40 522.00 384.37
  C 518.72 384.34 516.57 379.52 515.51 376.77
  Q 513.07 370.41 510.11 358.89
  Q 508.97 354.47 509.80 351.46
  A 1.32 1.28 -52.8 0 0 509.68 350.48
  L 508.01 347.60
  A 1.44 1.42 36.8 0 1 507.86 346.61
  C 508.37 344.38 506.72 342.68 506.48 340.61
  C 505.90 335.69 504.16 330.97 503.49 325.74
  Q 503.30 324.30 501.70 314.17
  A 1.12 1.12 0.0 0 0 500.43 313.24
  L 461.92 319.18
  A 2.07 2.07 0.0 0 0 460.25 320.64
  Q 459.53 323.05 457.25 333.51
  Q 455.92 339.63 453.17 347.34
  C 451.11 353.10 449.59 359.02 448.14 364.12
  Q 446.35 370.41 440.95 373.58
  A 0.67 0.67 0.0 0 1 439.99 373.24
  Q 438.61 369.59 435.78 368.72
  C 432.37 367.66 431.15 365.70 431.56 362.47
  C 432.38 356.07 432.55 349.47 433.85 342.90
  Q 436.56 329.17 439.21 318.65
  A 0.72 0.71 22.0 0 0 438.87 317.86
  L 430.80 313.19
  A 1.40 1.35 -84.2 0 1 430.16 312.38
  L 428.72 307.49
  A 0.83 0.83 0.0 0 1 428.81 306.83
  Q 430.30 304.34 432.11 304.13
  Q 439.40 303.29 441.63 302.64
  Q 443.47 302.10 443.98 299.92
  Q 448.80 279.51 453.36 261.11
  Q 455.38 252.95 457.39 247.24
  C 459.45 241.42 461.63 234.76 463.36 228.86
  Q 468.50 211.43 475.08 193.89
  C 476.68 189.64 479.54 186.42 479.48 181.69
  A 4.50 4.45 -34.5 0 1 479.83 179.86
  L 481.45 176.00
  A 1.28 1.21 -12.4 0 1 481.75 175.56
  C 484.38 172.98 487.29 173.44 490.45 174.72
  C 491.88 175.31 492.57 174.59 493.02 173.29
  A 0.48 0.48 0.0 0 1 493.81 173.11
  Q 494.21 173.52 496.50 175.75
  C 497.50 176.73 499.66 176.44 500.95 177.04
  Q 503.73 178.34 507.69 179.79
  Q 508.91 180.23 512.53 183.71
  A 3.99 3.95 13.7 0 1 513.58 185.42
  C 514.51 188.54 517.18 191.98 518.39 195.25
  Q 522.17 205.46 523.14 209.62
  Q 526.49 223.99 530.11 250.28
  Q 530.88 255.91 531.09 256.75
  Q 532.15 261.09 531.90 263.21
  C 531.68 265.11 533.15 267.17 532.87 269.21
  Q 532.67 270.66 532.46 271.30
  C 531.82 273.28 533.71 273.65 533.89 275.28
  Q 534.33 279.45 534.11 282.02
  Q 533.75 286.02 535.72 293.19
  A 1.27 1.26 -81.7 0 0 536.26 293.92
  Q 539.04 295.69 542.15 295.83
  A 0.36 0.35 3.2 0 1 542.49 296.20
  L 542.47 296.47
  A 0.12 0.12 0.0 0 1 542.35 296.59
  Q 539.23 296.57 537.97 299.91
  A 0.77 0.77 0.0 0 0 538.16 300.74
  Q 538.68 301.22 538.75 301.43
  A 0.80 0.79 -25.5 0 1 538.43 302.32
  Q 536.54 303.59 536.96 305.80
  C 537.32 307.73 536.38 309.05 537.46 310.63
  Q 539.05 312.95 537.95 315.30
  A 0.89 0.89 0.0 0 0 537.98 316.14
  L 538.82 317.59
  A 3.07 3.06 27.8 0 1 539.20 318.81
  Q 539.53 322.80 540.28 326.04
  C 540.84 328.45 539.57 330.48 540.39 332.80
  A 0.32 0.31 12.9 0 1 539.87 333.12
  Z
  M 486.80 219.73
  C 486.16 220.65 486.06 222.47 485.58 224.04
  Q 479.16 244.94 475.55 260.29
  Q 474.44 265.01 473.41 267.60
  A 1.24 1.15 -13.8 0 1 473.14 268.01
  L 471.47 269.68
  A 0.73 0.71 56.2 0 0 471.32 270.47
  L 471.99 272.03
  A 1.21 1.21 0.0 0 1 471.84 273.26
  C 470.18 275.44 470.78 278.22 470.05 280.31
  Q 467.92 286.40 466.24 296.13
  A 0.70 0.70 0.0 0 0 467.01 296.95
  L 497.00 293.78
  A 0.97 0.97 0.0 0 0 497.85 292.68
  L 487.48 219.89
  A 0.38 0.37 -31.6 0 0 486.80 219.73
  Z
  M 527.81 259.83
  Q 528.22 258.71 527.55 257.31
  A 0.65 0.65 0.0 0 0 526.31 257.63
  Q 526.32 257.87 527.26 259.85
  A 0.30 0.30 0.0 0 0 527.81 259.83
  Z
  M 528.2373 263.1052
  A 0.66 0.35 -97.2 0 0 527.9728 263.8039
  A 0.66 0.35 -97.2 0 0 528.4027 264.4148
  A 0.66 0.35 -97.2 0 0 528.6672 263.7161
  A 0.66 0.35 -97.2 0 0 528.2373 263.1052
  Z
  M 531.44 274.61
  A 0.82 0.82 0.0 0 0 530.62 273.79
  A 0.82 0.82 0.0 0 0 529.80 274.61
  A 0.82 0.82 0.0 0 0 530.62 275.43
  A 0.82 0.82 0.0 0 0 531.44 274.61
  Z
  M 531.11 280.11
  Q 531.03 280.19 531.03 280.51
  Q 531.03 280.97 530.65 281.25
  Q 529.76 281.92 528.78 281.49
  A 0.84 0.83 -72.3 0 1 528.30 280.54
  Q 528.51 279.62 528.63 279.18
  A 0.59 0.58 -6.3 0 0 527.78 278.51
  Q 527.21 278.81 527.23 279.51
  Q 527.24 279.89 528.05 282.81
  A 2.14 2.13 46.5 0 1 528.02 284.04
  Q 527.03 287.05 528.35 290.24
  A 1.25 1.22 85.4 0 0 529.18 290.96
  L 532.47 291.84
  A 1.12 1.12 0.0 0 0 533.81 290.39
  Q 532.74 287.32 532.92 284.55
  C 533.01 282.98 532.51 282.03 531.76 280.26
  A 0.41 0.41 0.0 0 0 531.11 280.11
  Z
  M 524.9355 279.7162
  A 1.06 0.77 -96.2 0 0 524.2845 280.8532
  A 1.06 0.77 -96.2 0 0 525.1645 281.8238
  A 1.06 0.77 -96.2 0 0 525.8155 280.6868
  A 1.06 0.77 -96.2 0 0 524.9355 279.7162
  Z
  M 535.35 318.49
  Q 534.82 319.50 533.54 320.26
  A 1.22 1.21 76.6 0 0 532.93 321.26
  Q 532.75 324.31 534.19 326.07
  A 0.82 0.81 39.0 0 1 534.29 326.97
  Q 533.95 327.63 533.89 327.89
  A 1.10 1.05 -5.8 0 0 535.38 329.05
  Q 535.88 328.85 535.97 328.15
  Q 536.30 325.44 537.20 323.54
  A 4.38 4.29 55.0 0 0 537.58 321.24
  Q 537.17 317.40 537.26 316.84
  A 2.18 2.14 44.5 0 0 537.25 316.22
  L 535.50 306.06
  A 0.62 0.62 0.0 0 0 534.49 305.69
  Q 533.37 306.61 533.64 307.84
  A 0.93 0.93 0.0 0 1 533.24 308.81
  C 529.58 311.18 531.44 315.87 532.16 318.70
  A 0.80 0.79 -37.1 0 0 533.62 318.90
  L 534.31 317.71
  A 0.40 0.39 -59.9 0 1 534.85 317.56
  L 535.13 317.72
  A 0.58 0.58 0.0 0 1 535.35 318.49
  Z
  M 531.6317 335.1820
  A 1.35 0.85 -113.5 0 0 531.3905 336.7589
  A 1.35 0.85 -113.5 0 0 532.7083 337.6580
  A 1.35 0.85 -113.5 0 0 532.9495 336.0811
  A 1.35 0.85 -113.5 0 0 531.6317 335.1820
  Z"
/>
<path fill="#cb5519" d="
  M 737.81 330.43
  L 736.16 329.72
  A 0.65 0.64 8.6 0 0 735.26 330.38
  Q 735.82 335.46 732.52 337.76
  A 0.99 0.98 -21.2 0 0 732.11 338.68
  Q 733.38 350.07 736.05 360.30
  A 0.36 0.35 -15.5 0 0 736.50 360.55
  L 736.83 360.46
  A 0.50 0.49 -17.7 0 0 737.16 359.83
  Q 736.23 357.07 736.89 354.45
  A 0.54 0.54 0.0 0 1 737.74 354.15
  L 738.41 354.65
  A 0.38 0.38 0.0 0 0 739.00 354.43
  L 740.41 348.47
  L 741.89 358.87
  A 2.16 2.15 -34.0 0 1 741.62 360.24
  L 740.84 361.59
  A 0.41 0.40 -67.8 0 0 741.08 362.18
  Q 742.15 362.47 742.57 362.88
  A 1.43 1.41 22.0 0 1 743.00 363.87
  Q 743.08 367.52 744.06 370.89
  A 6.99 6.79 38.5 0 1 744.32 372.90
  C 744.27 375.01 744.15 375.85 744.52 377.68
  Q 744.96 379.89 744.38 381.62
  C 743.92 382.97 744.24 384.43 744.11 385.75
  A 0.51 0.51 0.0 0 1 743.24 386.05
  L 741.27 384.08
  A 1.37 1.36 -52.6 0 0 739.12 384.37
  L 738.39 385.64
  A 0.45 0.44 31.1 0 1 737.77 385.79
  Q 736.10 384.78 732.99 384.89
  A 1.02 1.01 -76.3 0 0 732.14 385.41
  L 730.39 388.41
  A 0.46 0.45 -46.2 0 1 729.61 388.43
  C 728.64 386.89 726.84 385.14 724.25 385.80
  A 1.32 1.23 -43.0 0 1 723.66 385.80
  L 718.39 384.57
  A 4.02 4.00 -10.7 0 1 716.00 382.95
  Q 714.48 380.78 712.82 376.93
  Q 710.60 371.79 706.94 357.81
  Q 705.85 353.64 706.79 351.84
  A 1.23 1.22 -46.6 0 0 706.76 350.66
  L 705.28 348.10
  A 1.81 1.76 32.6 0 1 705.05 347.12
  C 705.19 344.99 703.98 342.61 703.63 340.30
  Q 702.92 335.65 701.24 330.34
  A 5.95 5.39 -60.6 0 1 701.01 329.33
  L 699.11 314.71
  A 1.58 1.58 0.0 0 0 697.26 313.36
  Q 677.17 317.11 658.76 319.14
  A 2.47 2.47 0.0 0 0 656.60 321.14
  Q 653.44 338.08 647.43 354.73
  C 645.78 359.32 645.03 363.95 642.88 368.66
  A 1.97 1.87 -9.9 0 1 642.39 369.32
  L 637.42 373.60
  A 0.71 0.71 0.0 0 1 636.26 373.17
  Q 635.68 369.19 632.74 368.32
  C 629.78 367.44 627.87 366.64 628.09 363.75
  C 628.94 352.73 629.67 345.05 631.93 335.17
  Q 633.01 330.48 635.52 318.24
  A 0.39 0.39 0.0 0 0 635.33 317.82
  L 627.35 313.22
  A 1.80 1.77 5.4 0 1 626.59 312.32
  L 624.86 307.83
  A 1.29 1.28 51.9 0 1 625.00 306.63
  Q 626.42 304.57 627.92 304.39
  Q 634.00 303.66 637.16 303.14
  Q 639.53 302.75 640.00 301.03
  Q 642.95 290.25 644.65 282.18
  C 646.29 274.44 648.34 267.71 649.47 262.46
  C 651.97 250.83 655.91 242.14 659.13 229.88
  Q 661.65 220.28 668.49 200.51
  Q 671.29 192.41 674.09 188.33
  Q 674.59 187.61 674.55 185.13
  C 674.50 182.23 675.48 179.72 676.26 177.53
  A 1.97 1.93 -9.6 0 1 676.90 176.65
  Q 681.21 173.31 686.09 175.93
  A 1.10 1.10 0.0 0 0 687.13 175.93
  Q 687.84 175.54 688.18 174.54
  A 0.70 0.70 0.0 0 1 689.40 174.33
  C 690.76 176.08 691.57 176.69 693.85 177.39
  C 698.50 178.82 707.92 182.52 709.55 187.27
  Q 709.99 188.55 710.83 190.01
  Q 715.70 198.46 718.89 209.62
  Q 724.02 227.58 726.78 248.54
  Q 727.23 251.92 728.19 256.31
  Q 729.35 261.56 729.01 264.12
  A 2.69 2.67 35.2 0 0 729.28 265.66
  Q 730.79 268.61 729.41 271.82
  A 1.37 1.36 -56.1 0 0 729.70 273.32
  L 730.79 274.40
  A 1.42 1.40 -69.3 0 1 731.20 275.32
  Q 731.39 278.77 731.68 279.66
  A 2.67 2.63 40.8 0 1 731.78 280.90
  C 731.36 283.51 731.91 290.58 733.26 293.05
  C 734.61 295.51 737.88 295.41 740.23 295.90
  A 0.49 0.49 0.0 0 1 740.15 296.87
  L 737.86 297.00
  A 1.64 1.63 -69.0 0 0 736.77 297.49
  Q 736.27 298.01 735.67 299.78
  A 0.61 0.61 0.0 0 0 735.97 300.52
  Q 736.40 300.74 736.63 300.95
  A 0.72 0.72 0.0 0 1 736.56 302.08
  L 734.79 303.32
  A 0.97 0.95 74.1 0 0 734.38 304.07
  Q 734.21 310.02 735.87 312.65
  A 1.78 1.78 0.0 0 1 735.92 314.46
  C 734.91 316.31 736.73 318.99 737.00 321.02
  Q 737.64 325.80 737.81 330.43
  Z
  M 662.85 297.42
  L 694.20 294.10
  A 0.92 0.91 -7.5 0 0 695.01 293.05
  L 683.91 220.96
  A 0.66 0.66 0.0 0 0 682.62 220.89
  L 670.41 266.90
  A 3.93 3.90 82.6 0 1 668.59 269.28
  Q 666.77 270.23 668.65 272.14
  A 0.87 0.87 0.0 0 1 668.72 273.28
  L 667.73 274.60
  A 1.21 1.13 -26.4 0 0 667.49 275.24
  Q 667.21 279.41 665.08 285.49
  C 663.76 289.26 663.59 293.13 662.28 296.69
  A 0.55 0.55 0.0 0 0 662.85 297.42
  Z
  M 723.5777 256.9196
  A 1.81 0.68 -108.1 0 0 723.4936 258.8513
  A 1.81 0.68 -108.1 0 0 724.7023 260.3604
  A 1.81 0.68 -108.1 0 0 724.7864 258.4287
  A 1.81 0.68 -108.1 0 0 723.5777 256.9196
  Z
  M 724.75 263.35
  L 725.07 264.74
  A 0.39 0.39 0.0 0 0 725.82 264.77
  Q 725.89 264.61 725.03 263.23
  A 0.16 0.15 -68.0 0 0 724.75 263.35
  Z
  M 727.9203 273.8000
  A 1.46 0.65 -83.3 0 0 727.1044 275.1742
  A 1.46 0.65 -83.3 0 0 727.5797 276.7000
  A 1.46 0.65 -83.3 0 0 728.3956 275.3258
  A 1.46 0.65 -83.3 0 0 727.9203 273.8000
  Z
  M 727.95 280.30
  L 727.58 281.70
  A 0.53 0.53 0.0 0 1 726.86 282.05
  L 725.94 281.67
  A 0.86 0.86 0.0 0 1 725.48 280.54
  L 726.05 279.18
  A 0.65 0.64 85.2 0 0 725.11 278.38
  Q 724.11 279.02 724.33 280.30
  Q 724.87 283.41 724.76 288.08
  A 3.18 3.17 -81.9 0 0 727.12 291.23
  L 729.33 291.81
  A 1.32 1.32 0.0 0 0 730.98 290.35
  L 730.02 283.11
  Q 730.01 283.07 730.00 283.03
  Q 729.36 280.98 728.84 280.17
  A 0.49 0.49 0.0 0 0 727.95 280.30
  Z
  M 721.9670 280.2039
  A 1.21 0.89 -98.7 0 0 721.2702 281.5346
  A 1.21 0.89 -98.7 0 0 722.3330 282.5961
  A 1.21 0.89 -98.7 0 0 723.0298 281.2654
  A 1.21 0.89 -98.7 0 0 721.9670 280.2039
  Z
  M 730.89 320.27
  Q 730.44 320.54 730.32 321.19
  Q 729.62 324.99 732.00 326.37
  A 0.46 0.45 -52.2 0 1 732.09 327.09
  L 730.99 328.20
  A 0.71 0.71 0.0 0 0 731.72 329.37
  Q 733.88 328.61 733.84 325.68
  A 1.27 1.05 -39.6 0 1 733.92 325.26
  L 734.80 322.86
  A 1.45 1.39 56.4 0 0 734.89 322.36
  Q 734.98 316.78 733.50 312.72
  A 0.78 0.64 39.6 0 1 733.45 312.46
  L 733.25 306.38
  A 0.88 0.88 0.0 0 0 731.64 305.93
  Q 731.30 306.44 731.37 308.26
  A 1.13 1.12 -23.3 0 1 731.03 309.11
  L 729.11 311.04
  A 2.46 2.44 64.6 0 0 728.40 313.05
  Q 728.69 315.81 729.21 318.49
  A 1.03 0.92 77.9 0 0 730.34 319.31
  Q 731.14 319.12 731.30 318.44
  A 0.42 0.42 0.0 0 1 731.82 318.13
  L 731.91 318.16
  A 0.37 0.36 -73.4 0 1 732.16 318.63
  Q 731.79 319.73 730.89 320.27
  Z
  M 726.3601 312.1308
  A 1.00 0.67 -87.7 0 0 725.6505 313.1031
  A 1.00 0.67 -87.7 0 0 726.2799 314.1292
  A 1.00 0.67 -87.7 0 0 726.9895 313.1569
  A 1.00 0.67 -87.7 0 0 726.3601 312.1308
  Z
  M 728.7665 335.8428
  A 1.36 0.96 -119.2 0 0 728.5920 337.4983
  A 1.36 0.96 -119.2 0 0 730.0935 338.2172
  A 1.36 0.96 -119.2 0 0 730.2680 336.5617
  A 1.36 0.96 -119.2 0 0 728.7665 335.8428
  Z"
/>
<path fill="#1c7176" d="
  M 369.67 254.25
  A 0.21 0.21 0.0 0 1 370.00 254.50
  Q 362.56 267.81 358.52 282.25
  Q 358.30 283.03 358.18 285.13
  A 3.64 3.51 60.5 0 1 357.83 286.49
  C 356.60 288.99 355.98 291.47 354.84 293.70
  Q 350.90 301.41 347.80 310.33
  C 347.24 311.92 345.75 314.52 344.89 315.55
  A 0.53 0.53 0.0 0 1 343.95 315.17
  L 344.26 311.98
  A 0.61 0.61 0.0 0 0 343.53 311.32
  Q 342.75 311.48 340.83 314.02
  A 1.64 1.64 0.0 0 1 339.18 314.63
  Q 336.50 314.04 334.11 317.34
  A 0.75 0.74 36.1 0 1 333.06 317.50
  L 328.86 314.33
  A 1.06 1.05 51.8 0 0 327.81 314.20
  L 325.45 315.21
  A 1.27 1.27 0.0 0 1 324.63 315.27
  L 320.23 314.11
  A 3.65 3.64 -81.1 0 1 317.53 310.40
  L 317.61 308.68
  A 1.11 1.08 -55.6 0 0 317.53 308.22
  Q 316.30 305.27 313.52 301.05
  Q 312.26 299.13 313.51 297.91
  Q 314.17 297.27 314.13 297.08
  Q 314.05 296.67 313.75 296.43
  Q 313.43 296.17 313.11 296.39
  Q 311.61 297.42 310.38 295.64
  Q 307.12 290.92 306.15 288.63
  Q 294.13 260.21 291.45 253.35
  Q 290.87 251.87 290.36 251.41
  A 0.62 0.62 0.0 0 0 289.33 251.82
  Q 288.01 271.92 287.36 278.61
  Q 286.41 288.23 287.02 293.40
  Q 287.03 293.55 286.67 303.31
  Q 286.55 306.36 286.68 313.20
  Q 287.27 344.62 287.43 347.01
  C 287.85 353.51 285.13 358.77 282.47 364.96
  C 280.53 369.46 276.80 371.90 276.00 376.51
  C 275.61 378.71 275.61 380.13 274.09 381.54
  Q 271.35 384.08 267.01 384.57
  A 1.32 1.26 50.2 0 1 266.40 384.50
  L 258.86 381.79
  A 2.68 2.66 84.8 0 1 257.45 380.61
  Q 255.19 376.70 255.18 375.72
  Q 255.11 367.20 255.30 359.51
  Q 255.51 351.43 255.26 345.32
  C 254.77 333.56 255.19 322.03 254.84 311.57
  C 254.61 304.66 255.14 297.82 255.34 290.27
  Q 255.50 284.35 256.20 279.78
  C 256.81 275.86 256.75 271.36 257.21 265.74
  Q 258.47 250.57 259.03 245.45
  Q 259.22 243.70 259.10 242.07
  C 259.00 240.66 259.65 238.93 259.80 237.49
  Q 260.32 232.25 261.53 223.32
  A 13.10 13.04 47.2 0 0 261.62 220.77
  Q 261.31 215.60 262.29 210.24
  A 9.31 9.13 -41.9 0 0 262.42 208.19
  L 262.45 205.54
  Q 262.45 205.51 262.45 205.47
  L 264.47 186.43
  A 2.47 2.37 -24.8 0 1 264.93 185.26
  Q 266.07 183.70 266.57 181.63
  A 3.63 3.61 2.2 0 1 269.55 178.89
  L 275.11 178.03
  A 1.01 0.99 -30.4 0 1 275.88 178.22
  L 277.67 179.57
  A 0.82 0.82 0.0 0 0 278.65 179.58
  C 283.34 176.19 285.31 175.86 288.86 181.38
  Q 291.01 184.72 294.52 185.27
  Q 296.87 185.64 297.90 186.44
  C 303.22 190.57 306.66 196.14 309.12 202.16
  C 316.03 219.10 318.73 228.60 326.16 251.39
  Q 329.54 261.78 333.58 270.87
  A 0.44 0.44 0.0 0 0 334.38 270.89
  C 335.30 268.99 336.65 266.79 337.48 264.99
  Q 343.92 250.89 350.44 240.53
  C 354.39 234.26 357.33 227.50 360.82 221.06
  Q 364.20 214.85 364.34 214.51
  C 366.61 209.30 369.14 205.97 371.83 200.85
  Q 374.34 196.09 378.64 188.42
  Q 381.04 184.14 382.83 178.76
  A 0.71 0.70 -72.0 0 1 383.71 178.31
  Q 384.58 178.60 385.15 178.55
  A 1.77 1.77 0.0 0 0 386.23 178.09
  L 388.07 176.42
  A 0.48 0.47 56.0 0 1 388.81 176.57
  Q 389.61 178.22 390.35 178.88
  A 0.68 0.66 -45.0 0 0 391.24 178.87
  C 393.34 176.99 396.04 174.10 398.34 175.83
  A 1.28 1.26 11.8 0 1 398.81 176.53
  L 399.55 179.54
  A 2.26 2.22 -68.9 0 0 399.84 180.21
  Q 401.23 182.38 402.27 185.73
  A 1.16 1.16 0.0 0 0 404.45 185.82
  Q 404.82 184.91 405.80 183.79
  A 0.78 0.78 0.0 0 1 407.15 184.19
  L 408.09 190.32
  A 1.19 1.19 0.0 0 0 408.61 191.13
  L 408.83 191.27
  A 0.66 0.66 0.0 0 0 409.82 190.70
  L 409.81 187.52
  A 0.48 0.47 0.6 0 1 410.31 187.04
  L 410.68 187.06
  A 0.33 0.32 -4.4 0 1 410.99 187.32
  C 411.47 189.72 411.31 192.15 411.80 194.77
  C 413.42 203.30 414.95 213.72 414.14 223.12
  Q 413.94 225.51 414.06 234.21
  Q 414.10 237.55 413.77 245.28
  C 413.10 261.16 411.92 274.92 411.35 289.54
  Q 411.17 294.20 410.65 303.25
  Q 410.44 307.03 411.39 321.06
  C 411.71 325.72 411.50 333.47 412.14 339.63
  Q 413.63 354.09 413.45 367.75
  C 413.42 370.02 412.31 372.13 412.18 374.08
  Q 411.94 377.57 411.89 377.62
  A 0.37 0.36 -31.1 0 1 411.27 377.47
  L 409.82 372.12
  A 1.03 1.03 0.0 0 0 407.87 371.99
  L 406.86 374.41
  A 0.76 0.75 19.4 0 1 405.96 374.84
  Q 404.64 374.48 403.56 375.94
  A 0.50 0.50 0.0 0 1 402.74 375.93
  C 401.33 373.91 401.74 371.34 401.18 370.29
  A 0.23 0.23 0.0 0 0 400.75 370.35
  L 400.47 372.27
  A 2.01 1.97 75.5 0 1 399.75 373.52
  Q 398.61 374.43 398.71 375.76
  C 398.87 377.83 398.76 378.45 397.64 380.85
  A 0.36 0.36 0.0 0 1 396.99 380.84
  C 396.51 379.74 393.67 376.42 391.75 376.39
  A 0.94 0.94 0.0 0 1 390.90 375.82
  L 388.92 371.22
  A 0.38 0.37 80.5 0 0 388.61 370.99
  L 388.14 370.94
  A 0.33 0.33 0.0 0 0 387.78 371.35
  Q 388.76 375.23 387.63 377.73
  A 0.52 0.52 0.0 0 1 386.68 377.72
  L 383.87 371.18
  A 0.82 0.78 12.4 0 0 383.70 370.93
  L 383.19 370.42
  A 0.70 0.70 0.0 0 0 382.10 370.54
  Q 380.18 373.51 381.44 376.50
  A 0.13 0.13 0.0 0 1 381.37 376.67
  L 381.36 376.68
  A 0.12 0.11 57.7 0 1 381.22 376.64
  Q 378.06 371.43 378.13 365.14
  Q 378.14 364.20 376.48 358.68
  A 5.08 5.01 37.8 0 1 376.27 357.11
  L 376.43 347.98
  A 0.24 0.23 37.3 0 1 376.89 347.92
  Q 378.45 353.00 378.13 355.98
  A 0.85 0.77 -51.6 0 0 378.15 356.29
  L 380.30 363.58
  A 0.42 0.42 0.0 0 0 380.83 363.86
  L 381.10 363.79
  A 0.31 0.31 0.0 0 0 381.31 363.45
  Q 379.23 351.34 379.50 349.00
  Q 379.88 345.59 379.10 343.96
  Q 378.76 343.23 379.36 341.23
  A 2.70 2.69 -38.9 0 0 379.47 340.23
  Q 378.70 331.63 378.31 329.67
  Q 377.50 325.65 377.82 320.31
  Q 377.93 318.46 378.03 310.60
  A 2.87 2.69 -53.4 0 0 377.94 309.82
  L 377.29 307.42
  A 4.32 4.29 39.1 0 1 377.15 306.12
  L 378.96 269.35
  A 0.04 0.03 14.9 0 0 378.94 269.32
  L 378.41 268.92
  A 0.31 0.31 0.0 0 0 377.92 269.13
  L 377.01 277.73
  A 0.35 0.34 33.1 0 1 376.37 277.86
  Q 375.30 276.06 375.18 273.50
  Q 375.03 270.35 376.11 255.44
  Q 376.32 252.52 376.04 250.55
  C 375.75 248.45 376.67 246.53 376.84 244.10
  Q 377.81 230.71 377.74 229.41
  A 0.91 0.84 -61.2 0 0 377.66 229.09
  Q 377.29 228.25 376.87 228.24
  A 0.46 0.45 -72.8 0 1 376.56 227.64
  L 378.18 223.17
  A 0.76 0.76 0.0 0 0 377.55 222.15
  L 377.20 222.12
  A 0.75 0.74 14.0 0 0 376.43 222.58
  L 374.72 226.65
  A 0.97 0.97 0.0 0 0 374.91 227.70
  Q 375.14 227.93 375.21 228.03
  A 1.53 1.52 32.5 0 1 375.47 229.20
  Q 375.06 231.29 373.94 233.31
  C 372.56 235.79 372.88 237.76 371.86 240.22
  A 2.79 2.65 -10.9 0 1 371.13 241.24
  Q 368.72 243.37 368.49 245.75
  C 368.27 248.01 367.12 249.28 366.87 251.72
  A 3.36 3.18 -31.5 0 1 366.58 252.80
  L 364.21 257.96
  A 4.00 3.90 83.6 0 1 363.10 259.39
  Q 361.13 260.98 360.22 263.80
  A 0.27 0.27 0.0 0 0 360.58 264.13
  Q 360.59 264.13 360.83 263.89
  A 0.46 0.46 0.0 0 1 361.58 264.38
  L 357.81 274.37
  A 1.28 1.20 61.5 0 0 357.74 274.64
  Q 357.38 277.16 355.80 280.82
  Q 355.45 281.64 355.58 282.35
  A 0.43 0.42 -38.6 0 0 356.39 282.44
  L 362.97 266.75
  A 3.21 3.01 -33.7 0 0 363.21 265.72
  Q 363.28 264.79 363.38 264.62
  Q 364.91 262.14 368.04 256.14
  A 4.20 3.90 83.5 0 1 368.76 255.16
  L 369.67 254.25
  Z
  M 376.58 205.42
  Q 375.07 206.65 374.32 208.24
  A 1.05 1.01 85.4 0 1 374.01 208.62
  L 371.74 210.39
  A 0.49 0.45 -13.4 0 0 371.57 210.64
  L 369.99 216.61
  A 1.32 1.23 -19.2 0 1 369.76 217.05
  Q 365.15 222.70 362.55 229.77
  Q 362.44 230.05 362.43 230.23
  A 0.29 0.28 62.6 0 0 362.96 230.40
  L 377.12 205.88
  A 0.36 0.36 0.0 0 0 376.58 205.42
  Z
  M 378.8327 215.0743
  A 0.71 0.71 0.0 0 0 378.5543 214.1096
  L 378.5192 214.0902
  A 0.71 0.71 0.0 0 0 377.5545 214.3687
  L 370.2473 227.6057
  A 0.71 0.71 0.0 0 0 370.5257 228.5704
  L 370.5608 228.5898
  A 0.71 0.71 0.0 0 0 371.5255 228.3113
  L 378.8327 215.0743
  Z
  M 368.55 232.35
  Q 369.16 232.66 369.49 231.94
  Q 370.61 229.47 370.18 229.24
  Q 369.75 229.02 368.36 231.35
  Q 367.95 232.04 368.55 232.35
  Z"
/>
<path fill="#e0b685" d="
  M 598.72 370.69
  Q 598.21 371.41 597.73 371.41
  Q 595.86 369.96 594.81 371.82
  Q 593.74 373.74 593.65 373.78
  A 0.38 0.37 -12.9 0 1 593.11 373.45
  Q 593.13 371.58 592.42 370.77
  A 0.92 0.92 0.0 0 0 590.82 371.28
  L 589.90 379.90
  A 0.34 0.34 0.0 0 1 589.27 380.04
  L 587.39 376.78
  A 0.73 0.73 0.0 0 0 586.09 376.86
  L 585.73 377.71
  A 0.99 0.99 0.0 0 1 583.85 377.56
  Q 582.80 373.13 579.71 369.80
  A 0.57 0.55 -44.3 0 0 578.89 369.80
  Q 578.28 370.46 578.10 371.93
  A 0.34 0.34 0.0 0 1 577.72 372.23
  L 577.44 372.20
  A 0.17 0.16 87.8 0 1 577.29 372.06
  Q 577.03 370.29 576.48 369.98
  A 0.49 0.49 0.0 0 0 575.75 370.35
  Q 575.48 372.77 576.18 374.95
  A 0.21 0.20 19.9 0 1 575.81 375.12
  Q 571.49 368.72 571.46 361.01
  Q 571.45 358.26 572.52 356.47
  L 572.66 353.78
  Q 572.70 351.87 573.93 345.63
  C 574.63 342.02 573.18 337.23 573.22 333.76
  Q 573.32 325.28 574.03 318.95
  C 574.16 317.80 574.83 316.68 575.03 315.78
  A 0.96 0.96 0.0 0 0 574.84 314.97
  C 572.66 312.27 575.89 310.43 575.61 307.74
  C 575.45 306.14 576.46 305.70 576.49 304.61
  C 576.53 303.23 575.36 302.96 574.14 303.19
  A 0.62 0.62 0.0 0 1 573.42 302.66
  Q 572.75 297.53 572.83 294.69
  Q 572.93 291.19 572.90 289.32
  Q 572.70 279.11 572.67 278.78
  C 572.44 276.00 573.63 273.13 572.83 270.39
  Q 572.46 269.10 572.47 267.07
  C 572.52 258.26 574.07 246.36 573.72 237.42
  A 0.75 0.74 -1.2 0 0 572.97 236.71
  L 572.90 236.71
  A 0.67 0.67 0.0 0 0 572.23 237.39
  Q 572.35 242.30 572.21 242.99
  Q 570.45 251.60 569.89 260.27
  A 0.15 0.15 0.0 0 1 569.74 260.41
  L 569.73 260.41
  A 0.20 0.20 0.0 0 1 569.53 260.21
  Q 569.51 256.01 569.19 247.87
  Q 569.06 244.25 569.50 240.59
  C 569.89 237.40 569.48 234.41 569.75 230.90
  Q 570.78 217.16 571.99 195.29
  A 1.60 1.44 42.1 0 0 571.96 194.99
  L 571.31 192.13
  A 2.05 2.05 0.0 0 1 571.62 190.49
  Q 572.43 189.33 572.81 185.81
  C 573.18 182.20 580.77 181.92 583.32 182.28
  Q 586.68 182.75 587.61 182.91
  A 9.10 9.04 61.0 0 1 590.20 183.66
  L 603.10 189.48
  A 4.49 4.48 85.8 0 1 605.04 191.16
  Q 607.79 195.48 608.39 198.58
  Q 610.38 209.05 609.58 220.25
  C 608.79 231.45 608.14 240.47 606.83 254.56
  Q 603.08 294.62 605.16 334.70
  C 605.46 340.49 605.06 345.18 605.42 350.60
  C 605.82 356.65 605.58 363.25 604.65 368.34
  A 4.11 4.10 80.0 0 1 602.70 371.13
  Q 602.68 371.14 601.76 370.85
  A 1.08 1.06 -2.2 0 1 601.07 370.22
  Q 600.87 369.72 600.44 369.17
  Q 599.81 368.37 599.14 369.20
  Q 598.68 369.76 598.72 370.69
  Z
  M 580.6535 281.0050
  A 0.80 0.80 0.0 0 0 580.0095 280.0748
  L 579.9308 280.0605
  A 0.80 0.80 0.0 0 0 579.0006 280.7046
  L 578.0065 286.1750
  A 0.80 0.80 0.0 0 0 578.6505 287.1052
  L 578.7292 287.1195
  A 0.80 0.80 0.0 0 0 579.6594 286.4754
  L 580.6535 281.0050
  Z
  M 575.21 301.88
  Q 576.08 301.87 576.41 300.66
  A 1.37 1.36 43.9 0 0 576.39 299.90
  C 575.69 297.63 576.72 295.32 576.02 292.97
  A 2.99 2.85 -54.3 0 1 575.90 292.08
  Q 576.11 282.73 574.99 282.75
  Q 573.87 282.76 574.30 292.10
  A 2.99 2.85 52.9 0 1 574.20 292.99
  C 573.55 295.36 574.64 297.64 573.99 299.93
  A 1.37 1.36 -45.2 0 0 573.99 300.69
  Q 574.34 301.89 575.21 301.88
  Z
  M 598.72 286.91
  Q 598.50 287.90 598.15 294.28
  Q 598.08 295.49 596.62 297.09
  A 1.78 1.72 74.5 0 0 596.23 297.81
  L 595.62 300.13
  A 0.35 0.35 0.0 0 0 595.87 300.56
  L 596.17 300.64
  A 0.47 0.46 14.0 0 0 596.74 300.30
  Q 597.39 297.61 599.09 296.14
  A 1.78 1.77 67.0 0 0 599.70 294.62
  L 598.88 286.92
  A 0.08 0.08 0.0 0 0 598.72 286.91
  Z
  M 579.94 290.15
  L 578.76 290.12
  A 0.16 0.16 0.0 0 0 578.59 290.27
  L 578.40 296.96
  A 7.17 0.47 -88.3 0 0 578.65 304.14
  L 579.21 304.16
  A 7.17 0.47 -88.3 0 0 579.89 297.00
  L 580.09 290.32
  A 0.16 0.16 0.0 0 0 579.94 290.15
  Z
  M 598.34 301.70
  Q 598.36 303.36 597.27 303.74
  Q 595.99 304.19 596.11 304.77
  Q 596.13 304.89 597.22 305.74
  A 1.57 1.55 14.9 0 1 597.82 306.76
  Q 598.24 309.60 597.03 312.01
  A 0.49 0.49 0.0 0 0 597.60 312.70
  Q 599.33 312.24 599.46 310.77
  Q 599.77 307.10 599.57 302.43
  A 1.09 1.08 17.6 0 0 599.14 301.61
  L 598.89 301.42
  A 0.35 0.34 17.6 0 0 598.34 301.70
  Z
  M 578.61 305.77
  A 0.29 0.27 -44.0 0 0 579.14 305.76
  Q 579.28 305.37 579.15 304.96
  A 0.24 0.24 0.0 0 0 578.71 304.93
  Q 578.50 305.36 578.61 305.77
  Z
  M 598.47 315.05
  L 597.97 317.50
  A 0.29 0.29 0.0 0 0 598.19 317.84
  L 598.46 317.90
  A 1.38 1.37 11.6 0 0 600.09 316.83
  L 600.15 316.50
  A 1.38 1.37 11.6 0 0 599.08 314.88
  L 598.81 314.82
  A 0.29 0.29 0.0 0 0 598.47 315.05
  Z
  M 601.22 340.42
  L 600.08 319.29
  A 0.05 0.05 0.0 0 0 600.02 319.24
  L 600.02 319.24
  A 5.33 1.97 86.9 0 0 598.34 324.67
  L 598.92 335.26
  A 5.33 1.97 86.9 0 0 601.17 340.47
  L 601.17 340.47
  A 0.05 0.05 0.0 0 0 601.22 340.42
  Z
  M 595.82 326.90
  Q 595.46 328.19 595.57 328.59
  A 0.46 0.46 0.0 0 0 596.46 328.58
  Q 596.57 328.12 596.22 326.90
  A 0.21 0.21 0.0 0 0 595.82 326.90
  Z"
/>
<path fill="#fdfbf6" d="
  M 527.26 259.85
  Q 526.32 257.87 526.31 257.63
  A 0.65 0.65 0.0 0 1 527.55 257.31
  Q 528.22 258.71 527.81 259.83
  A 0.30 0.30 0.0 0 1 527.26 259.85
  Z"
/>
<ellipse fill="#fdfbf6" cx="0.00" cy="0.00" transform="translate(724.14,258.64) rotate(-108.1)" rx="1.81" ry="0.68"/>
<ellipse fill="#e0b685" cx="0.00" cy="0.00" transform="translate(528.32,263.76) rotate(-97.2)" rx="0.66" ry="0.35"/>
<path fill="#e0b685" d="
  M 725.03 263.23
  Q 725.89 264.61 725.82 264.77
  A 0.39 0.39 0.0 0 1 725.07 264.74
  L 724.75 263.35
  A 0.16 0.15 -68.0 0 1 725.03 263.23
  Z"
/>
<ellipse fill="#fdfbf6" cx="0.00" cy="0.00" transform="translate(727.75,275.25) rotate(-83.3)" rx="1.46" ry="0.65"/>
<path fill="#fdfbf6" d="
  M 727.95 280.30
  A 0.49 0.49 0.0 0 1 728.84 280.17
  Q 729.36 280.98 730.00 283.03
  Q 730.01 283.07 730.02 283.11
  L 730.98 290.35
  A 1.32 1.32 0.0 0 1 729.33 291.81
  L 727.12 291.23
  A 3.18 3.17 -81.9 0 1 724.76 288.08
  Q 724.87 283.41 724.33 280.30
  Q 724.11 279.02 725.11 278.38
  A 0.65 0.64 85.2 0 1 726.05 279.18
  L 725.48 280.54
  A 0.86 0.86 0.0 0 0 725.94 281.67
  L 726.86 282.05
  A 0.53 0.53 0.0 0 0 727.58 281.70
  L 727.95 280.30
  Z"
/>
<ellipse fill="#e0b685" cx="0.00" cy="0.00" transform="translate(525.05,280.77) rotate(-96.2)" rx="1.06" ry="0.77"/>
<ellipse fill="#fdfbf6" cx="0.00" cy="0.00" transform="translate(722.15,281.40) rotate(-98.7)" rx="1.21" ry="0.89"/>
<path fill="#1c7176" d="
  M 375.19 303.13
  Q 374.87 303.25 374.60 302.84
  A 0.30 0.30 0.0 0 1 374.56 302.69
  L 374.78 286.83
  A 0.79 0.78 3.7 0 1 375.65 286.07
  L 376.10 286.11
  A 0.61 0.61 0.0 0 1 376.64 286.79
  L 375.20 298.59
  A 0.27 0.17 -31.7 0 1 375.17 298.65
  C 373.92 300.45 375.53 301.10 375.36 302.91
  A 0.26 0.25 -9.3 0 1 375.19 303.13
  Z"
/>
<path fill="#fdfbf6" d="
  M 598.88 286.92
  L 599.70 294.62
  A 1.78 1.77 67.0 0 1 599.09 296.14
  Q 597.39 297.61 596.74 300.30
  A 0.47 0.46 14.0 0 1 596.17 300.64
  L 595.87 300.56
  A 0.35 0.35 0.0 0 1 595.62 300.13
  L 596.23 297.81
  A 1.78 1.72 74.5 0 1 596.62 297.09
  Q 598.08 295.49 598.15 294.28
  Q 598.50 287.90 598.72 286.91
  A 0.08 0.08 0.0 0 1 598.88 286.92
  Z"
/>
<ellipse fill="#8a1f34" cx="0.00" cy="0.00" transform="translate(567.92,295.63) rotate(-85.0)" rx="2.93" ry="0.32"/>
<path fill="#fdfbf6" d="
  M 598.34 301.70
  A 0.35 0.34 17.6 0 1 598.89 301.42
  L 599.14 301.61
  A 1.09 1.08 17.6 0 1 599.57 302.43
  Q 599.77 307.10 599.46 310.77
  Q 599.33 312.24 597.60 312.70
  A 0.49 0.49 0.0 0 1 597.03 312.01
  Q 598.24 309.60 597.82 306.76
  A 1.57 1.55 14.9 0 0 597.22 305.74
  Q 596.13 304.89 596.11 304.77
  Q 595.99 304.19 597.27 303.74
  Q 598.36 303.36 598.34 301.70
  Z"
/>
<path fill="#8a1f34" d="
  M 374.86 304.09
  Q 374.77 303.86 374.83 303.72
  A 0.13 0.10 73.0 0 1 375.02 303.85
  Q 374.99 303.93 374.90 304.09
  A 0.02 0.02 0.0 0 1 374.86 304.09
  Z"
/>
<path fill="#8a1f34" d="
  M 375.03 305.67
  Q 375.19 306.31 374.96 307.71
  A 0.23 0.23 0.0 0 1 374.54 307.79
  Q 374.43 307.60 374.61 305.71
  A 0.22 0.21 -49.8 0 1 375.03 305.67
  Z"
/>
<path fill="#fdfbf6" d="
  M 730.89 320.27
  Q 731.79 319.73 732.16 318.63
  A 0.37 0.36 -73.4 0 0 731.91 318.16
  L 731.82 318.13
  A 0.42 0.42 0.0 0 0 731.30 318.44
  Q 731.14 319.12 730.34 319.31
  A 1.03 0.92 77.9 0 1 729.21 318.49
  Q 728.69 315.81 728.40 313.05
  A 2.46 2.44 64.6 0 1 729.11 311.04
  L 731.03 309.11
  A 1.13 1.12 -23.3 0 0 731.37 308.26
  Q 731.30 306.44 731.64 305.93
  A 0.88 0.88 0.0 0 1 733.25 306.38
  L 733.45 312.46
  A 0.78 0.64 39.6 0 0 733.50 312.72
  Q 734.98 316.78 734.89 322.36
  A 1.45 1.39 56.4 0 1 734.80 322.86
  L 733.92 325.26
  A 1.27 1.05 -39.6 0 0 733.84 325.68
  Q 733.88 328.61 731.72 329.37
  A 0.71 0.71 0.0 0 1 730.99 328.20
  L 732.09 327.09
  A 0.46 0.45 -52.2 0 0 732.00 326.37
  Q 729.62 324.99 730.32 321.19
  Q 730.44 320.54 730.89 320.27
  Z"
/>
<ellipse fill="#8a1f34" cx="0.00" cy="0.00" transform="translate(573.89,306.58) rotate(-124.6)" rx="0.76" ry="0.40"/>
<circle fill="#8a1f34" cx="534.53" cy="312.81" r="0.48"/>
<ellipse fill="#e0b685" cx="0.00" cy="0.00" transform="translate(726.32,313.13) rotate(-87.7)" rx="1.00" ry="0.67"/>
<path fill="#fdfbf6" d="
  M 598.47 315.05
  A 0.29 0.29 0.0 0 1 598.81 314.82
  L 599.08 314.88
  A 1.38 1.37 11.6 0 1 600.15 316.50
  L 600.09 316.83
  A 1.38 1.37 11.6 0 1 598.46 317.90
  L 598.19 317.84
  A 0.29 0.29 0.0 0 1 597.97 317.50
  L 598.47 315.05
  Z"
/>
<ellipse fill="#8a1f34" cx="0.00" cy="0.00" transform="translate(374.91,321.31) rotate(-94.2)" rx="1.70" ry="0.27"/>
<path fill="#fdfbf6" d="
  M 601.22 340.42
  A 0.05 0.05 0.0 0 1 601.17 340.47
  L 601.17 340.47
  A 5.33 1.97 86.9 0 1 598.92 335.26
  L 598.34 324.67
  A 5.33 1.97 86.9 0 1 600.02 319.24
  L 600.02 319.24
  A 0.05 0.05 0.0 0 1 600.08 319.29
  L 601.22 340.42
  Z"
/>
<path fill="#1c7176" d="
  M 374.92 326.92
  Q 375.13 326.92 375.32 332.49
  Q 375.35 333.36 374.90 333.35
  Q 374.45 333.35 374.48 332.48
  Q 374.72 326.92 374.92 326.92
  Z"
/>
<path fill="#fdfbf6" d="
  M 596.22 326.90
  Q 596.57 328.12 596.46 328.58
  A 0.46 0.46 0.0 0 1 595.57 328.59
  Q 595.46 328.19 595.82 326.90
  A 0.21 0.21 0.0 0 1 596.22 326.90
  Z"
/>
<path fill="#e0b685" d="
  M 568.91 332.26
  L 568.94 330.78
  A 5.54 0.53 88.3 0 1 569.18 328.46
  A 5.63 0.55 88.6 0 1 569.62 329.06
  A 5.61 0.54 88.4 0 1 569.85 338.94
  A 5.58 0.53 88.8 0 1 569.49 339.26
  A 5.61 0.55 88.3 0 1 568.91 332.26
  Z"
/>
<path fill="#fdfbf6" d="
  M 737.81 330.43
  Q 737.41 332.32 738.00 334.37
  Q 738.51 336.12 738.42 336.87
  C 738.10 339.38 740.33 340.18 739.70 342.60
  Q 738.92 345.63 740.41 348.47
  L 739.00 354.43
  A 0.38 0.38 0.0 0 1 738.41 354.65
  L 737.74 354.15
  A 0.54 0.54 0.0 0 0 736.89 354.45
  Q 736.23 357.07 737.16 359.83
  A 0.50 0.49 -17.7 0 1 736.83 360.46
  L 736.50 360.55
  A 0.36 0.35 -15.5 0 1 736.05 360.30
  Q 733.38 350.07 732.11 338.68
  A 0.99 0.98 -21.2 0 1 732.52 337.76
  Q 735.82 335.46 735.26 330.38
  A 0.65 0.64 8.6 0 1 736.16 329.72
  L 737.81 330.43
  Z"
/>
<path fill="#8a1f34" d="
  M 568.94 330.78
  L 568.91 332.26
  A 5.61 0.68 87.9 0 1 568.94 330.78
  Z"
/>
<ellipse fill="#8a1f34" cx="0.00" cy="0.00" transform="translate(540.74,335.58) rotate(-75.6)" rx="0.84" ry="0.37"/>
<ellipse fill="#e0b685" cx="0.00" cy="0.00" transform="translate(532.17,336.42) rotate(-113.5)" rx="1.35" ry="0.85"/>
<ellipse fill="#e0b685" cx="0.00" cy="0.00" transform="translate(729.43,337.03) rotate(-119.2)" rx="1.36" ry="0.96"/>
<path fill="#8a1f34" d="
  M 538.56 339.87
  Q 537.47 339.68 537.07 338.40
  A 0.22 0.22 0.0 0 1 537.41 338.16
  L 538.97 339.34
  A 0.38 0.38 0.0 0 1 538.56 339.87
  Z"
/>
<path fill="#8a1f34" d="
  M 540.68 343.72
  Q 541.20 341.92 540.44 340.31
  A 0.65 0.65 0.0 0 1 541.05 339.38
  C 543.74 339.48 542.56 343.10 541.75 344.24
  A 0.60 0.60 0.0 0 1 540.68 343.72
  Z"
/>
<ellipse fill="#1c7176" cx="0.00" cy="0.00" transform="translate(375.69,342.23) rotate(-101.3)" rx="1.82" ry="0.60"/>
<ellipse fill="#8a1f34" cx="0.00" cy="0.00" transform="translate(570.60,350.42) rotate(-95.8)" rx="2.69" ry="0.31"/>
<path fill="#8a1f34" d="
  M 572.66 353.78
  L 572.52 356.47
  L 572.66 353.78
  Z"
/>
<path fill="#8a1f34" d="
  M 598.72 370.69
  Q 599.78 371.76 597.73 371.41
  Q 598.21 371.41 598.72 370.69
  Z"
/>
</svg>
