<?xml version="1.0" encoding="UTF-8" standalone="no"?>
<!DOCTYPE svg PUBLIC "-//W3C//DTD SVG 1.1//EN" "http://www.w3.org/Graphics/SVG/1.1/DTD/svg11.dtd">
<svg xmlns="http://www.w3.org/2000/svg" version="1.1" viewBox="0.00 0.00 1024.00 585.00">
<g stroke-width="2.00" fill="none" stroke-linecap="butt">
<path stroke="#0e393a" vector-effect="non-scaling-stroke" d="
  M 449.62 326.63
  Q 448.95 326.47 448.45 326.55"
/>
<path stroke="#0e393a" vector-effect="non-scaling-stroke" d="
  M 437.97 315.19
  L 437.89 310.50"
/>
<path stroke="#0e393a" vector-effect="non-scaling-stroke" d="
  M 437.11 242.29
  Q 436.98 242.88 437.07 243.45"
/>
<path stroke="#7e947d" vector-effect="non-scaling-stroke" d="
  M 544.44 309.49
  Q 544.48 309.04 544.70 308.77"
/>
<path stroke="#544955" vector-effect="non-scaling-stroke" d="
  M 544.62 301.73
  L 544.59 302.71"
/>
<path stroke="#544955" vector-effect="non-scaling-stroke" d="
  M 543.38 303.29
  L 543.39 301.79"
/>
<path stroke="#544955" vector-effect="non-scaling-stroke" d="
  M 523.99 276.22
  Q 524.41 274.83 523.66 274.98"
/>
<path stroke="#0e393a" vector-effect="non-scaling-stroke" d="
  M 431.98 240.42
  Q 432.49 239.90 432.77 239.29
  A 0.25 0.24 80.4 0 0 432.38 239.01
  Q 431.42 239.93 431.44 240.23
  A 0.31 0.31 0.0 0 0 431.98 240.42"
/>
<path stroke="#746448" vector-effect="non-scaling-stroke" d="
  M 633.94 289.82
  L 633.70 287.70"
/>
</g>
<path fill="#8c2035" d="
  M 530.40 328.45
  Q 526.32 327.49 523.72 330.38
  A 0.52 0.52 0.0 0 1 522.93 330.35
  Q 522.01 329.15 518.05 328.77
  C 515.55 328.53 514.88 326.56 513.83 323.97
  Q 511.91 319.23 511.06 314.48
  Q 509.88 307.86 509.14 304.70
  Q 507.14 296.25 506.40 290.42
  A 0.80 0.80 0.0 0 0 505.49 289.73
  L 484.85 292.63
  A 1.32 1.32 0.0 0 0 483.75 293.65
  Q 481.33 304.44 476.66 318.43
  Q 475.79 321.05 473.37 322.71
  A 0.61 0.61 0.0 0 1 472.50 322.52
  C 470.43 319.04 467.36 320.64 467.87 315.37
  Q 469.11 302.42 471.81 293.27
  A 1.28 1.28 0.0 0 0 471.32 291.85
  C 469.02 290.24 466.63 289.67 466.07 286.49
  A 1.73 1.72 -9.0 0 1 467.53 284.49
  L 472.76 283.75
  A 2.21 2.20 -87.2 0 0 474.59 282.08
  C 477.88 268.42 479.33 261.16 482.90 250.21
  C 485.97 240.80 489.12 229.45 493.13 220.62
  C 494.11 218.47 494.18 216.15 495.12 214.10
  A 2.54 2.53 13.5 0 1 497.53 212.63
  L 501.61 212.80
  A 4.28 4.15 55.3 0 1 502.82 213.04
  C 505.17 214.48 510.90 215.29 513.10 219.18
  C 518.24 228.30 519.31 236.50 521.44 249.62
  Q 523.74 263.79 524.90 276.94
  A 2.22 2.08 -61.7 0 0 525.11 277.73
  Q 526.02 279.64 528.56 279.44
  A 0.41 0.41 0.0 0 1 528.83 280.18
  L 527.90 280.87
  A 0.94 0.89 -7.4 0 0 527.59 281.25
  L 525.73 285.28
  A 1.73 1.69 86.5 0 1 525.10 286.01
  Q 521.41 288.39 523.64 291.79
  A 2.25 2.21 -58.7 0 1 523.99 293.29
  Q 523.84 294.57 524.15 295.96
  A 0.68 0.68 0.0 0 0 525.29 296.29
  L 525.60 295.98
  A 1.73 1.69 -26.9 0 0 526.09 294.53
  L 525.54 290.61
  A 0.68 0.56 -70.4 0 0 525.45 290.36
  Q 524.56 288.87 525.04 287.86
  A 0.65 0.65 0.0 0 1 526.27 288.05
  C 526.73 291.50 528.43 295.88 527.80 299.83
  A 1.34 1.34 0.0 0 1 527.28 300.68
  Q 525.29 302.12 525.27 304.39
  Q 525.25 307.38 526.23 311.77
  A 0.84 0.84 0.0 0 0 527.64 312.17
  L 527.89 311.93
  A 2.10 2.08 63.8 0 0 528.48 310.17
  L 527.55 303.61
  A 0.25 0.25 0.0 0 1 527.89 303.35
  L 528.21 303.47
  A 1.29 1.28 13.0 0 1 529.02 304.76
  L 528.88 306.84
  A 1.94 1.90 -55.2 0 0 529.03 307.72
  Q 530.41 310.84 529.86 315.13
  A 2.02 1.96 38.1 0 0 530.00 316.16
  Q 532.20 321.40 530.91 328.12
  A 0.43 0.42 -77.4 0 1 530.40 328.45
  Z
  M 498.68 238.68
  A 0.34 0.34 0.0 0 0 498.01 238.64
  L 486.60 280.28
  A 0.34 0.34 0.0 0 0 486.97 280.71
  L 503.92 278.33
  A 0.34 0.34 0.0 0 0 504.21 277.94
  L 498.68 238.68
  Z
  M 523.99 276.22
  Q 524.41 274.83 523.66 274.98
  Q 523.88 272.06 521.74 271.63
  A 0.63 0.62 -72.7 0 0 521.03 272.01
  Q 520.79 272.58 520.81 273.52
  C 520.84 275.23 520.56 277.44 523.22 277.24
  Q 523.99 277.19 523.99 276.22
  Z"
/>
<path fill="#1c7174" d="
  M 449.62 326.63
  Q 448.95 326.47 448.45 326.55
  L 445.19 323.39
  A 0.58 0.57 41.7 0 0 444.35 323.43
  Q 443.98 323.88 443.96 324.47
  A 0.64 0.64 0.0 0 1 442.69 324.54
  L 442.35 322.12
  A 0.82 0.82 0.0 0 0 441.32 321.45
  Q 440.14 321.78 439.76 322.72
  A 0.38 0.38 0.0 0 1 439.03 322.64
  L 437.97 315.19
  L 437.89 310.50
  Q 439.79 305.27 438.22 299.74
  Q 438.00 299.00 436.83 299.18
  A 0.33 0.32 -76.6 0 1 436.52 298.67
  Q 437.72 296.93 436.60 294.53
  A 0.73 0.72 -30.6 0 1 436.83 293.65
  C 439.16 291.95 438.41 288.17 437.09 286.33
  A 1.66 1.65 -60.9 0 1 436.79 285.26
  L 437.24 278.74
  A 1.27 1.24 -53.9 0 0 437.16 278.20
  L 436.36 276.01
  A 0.85 0.84 60.6 0 1 436.61 275.09
  Q 437.19 274.60 437.23 274.60
  A 1.81 1.41 81.8 0 0 438.51 272.36
  Q 437.85 269.73 437.07 268.32
  A 2.15 2.11 31.8 0 1 436.80 267.21
  Q 437.19 256.14 438.08 245.00
  Q 438.18 243.76 437.50 242.54
  A 1.14 1.13 40.5 0 1 437.42 241.61
  Q 437.57 241.18 437.60 238.16
  C 437.61 237.31 438.47 236.51 438.46 236.15
  A 0.26 0.26 0.0 0 0 438.00 235.99
  Q 435.76 238.78 437.11 242.29
  Q 436.98 242.88 437.07 243.45
  C 435.80 247.68 433.51 251.71 432.45 255.67
  Q 431.66 258.65 429.66 260.73
  A 1.08 1.06 63.6 0 0 429.37 261.62
  L 429.57 263.04
  A 0.26 0.26 0.0 0 0 430.06 263.13
  Q 432.08 259.13 432.20 259.06
  A 0.30 0.30 0.0 0 1 432.64 259.40
  Q 431.96 261.86 431.36 262.39
  Q 429.14 264.32 428.74 267.15
  C 428.18 271.13 427.65 274.40 425.82 278.39
  Q 423.49 283.46 421.14 289.50
  A 0.77 0.77 0.0 0 1 419.96 289.84
  Q 419.67 289.62 419.38 289.54
  A 1.53 1.50 -50.2 0 0 418.37 289.64
  L 414.22 291.56
  A 1.21 1.20 49.5 0 1 413.03 291.46
  L 412.05 290.80
  A 3.30 3.26 68.5 0 0 410.94 290.31
  C 409.46 289.97 407.81 291.33 405.78 289.58
  A 1.84 1.79 15.6 0 1 405.19 288.57
  Q 404.36 284.58 402.14 281.34
  C 397.27 274.24 394.67 266.28 390.41 255.90
  A 0.41 0.41 0.0 0 0 389.62 256.02
  Q 388.65 268.03 388.32 276.00
  Q 387.88 286.91 388.67 308.73
  A 8.71 8.59 -39.4 0 1 388.42 311.10
  Q 387.00 316.82 383.25 322.12
  A 3.10 2.88 72.6 0 0 382.83 323.00
  L 381.92 326.07
  A 0.61 0.43 80.2 0 1 381.83 326.26
  Q 379.88 329.09 376.55 328.53
  C 371.94 327.75 370.58 325.85 370.58 320.88
  Q 370.60 301.36 370.42 286.76
  Q 370.36 281.56 370.65 277.75
  Q 372.02 259.56 373.17 248.80
  Q 373.92 241.72 374.42 234.18
  Q 375.13 223.46 375.88 219.63
  Q 377.04 213.74 383.32 215.58
  A 1.01 0.95 37.8 0 0 384.07 215.51
  L 386.04 214.45
  A 1.46 1.46 0.0 0 1 387.88 214.85
  L 389.83 217.40
  A 3.20 3.17 79.1 0 0 391.44 218.50
  C 398.02 220.41 400.67 227.99 402.98 234.51
  Q 406.98 245.77 410.24 256.35
  C 411.16 259.34 412.68 262.49 413.75 265.59
  A 0.49 0.48 -42.2 0 0 414.65 265.63
  Q 418.97 256.38 421.06 252.83
  C 427.46 241.94 431.94 232.33 438.53 221.04
  C 439.88 218.72 440.02 214.04 444.96 214.76
  Q 446.45 214.98 447.78 213.63
  A 1.26 1.26 0.0 0 1 449.86 214.08
  L 451.42 218.37
  A 0.75 0.75 0.0 0 0 452.39 218.81
  Q 454.44 218.03 455.13 219.93
  A 0.81 0.80 -12.7 0 0 455.98 220.46
  Q 456.25 220.43 456.46 220.64
  Q 456.68 220.87 456.73 221.19
  Q 458.24 232.02 458.46 233.29
  A 11.43 11.12 42.0 0 1 458.62 235.70
  C 458.41 241.14 458.50 246.33 458.25 250.76
  Q 458.12 252.95 456.69 278.66
  C 456.31 285.34 456.77 291.34 456.93 297.27
  C 457.14 304.46 458.09 312.19 458.05 318.78
  C 458.04 320.90 457.18 322.59 457.28 324.61
  A 0.29 0.29 0.0 0 1 456.72 324.72
  L 455.99 322.71
  A 0.63 0.63 0.0 0 0 455.08 322.38
  C 453.48 323.29 453.03 324.63 450.93 323.25
  A 0.50 0.50 0.0 0 0 450.17 323.58
  L 449.62 326.63
  Z
  M 436.5649 231.7331
  A 1.59 0.50 -57.9 0 0 435.2964 232.8143
  A 1.59 0.50 -57.9 0 0 434.8751 234.4269
  A 1.59 0.50 -57.9 0 0 436.1436 233.3457
  A 1.59 0.50 -57.9 0 0 436.5649 231.7331
  Z
  M 431.98 240.42
  Q 432.49 239.90 432.77 239.29
  A 0.25 0.24 80.4 0 0 432.38 239.01
  Q 431.42 239.93 431.44 240.23
  A 0.31 0.31 0.0 0 0 431.98 240.42
  Z"
/>
<path fill="#cc561b" d="
  M 637.34 307.77
  Q 639.01 310.67 638.53 315.20
  A 2.06 2.03 -53.1 0 0 638.65 316.09
  Q 640.58 321.37 640.07 328.77
  A 0.55 0.55 0.0 0 1 639.43 329.28
  Q 639.30 329.26 638.65 328.90
  Q 638.16 328.62 637.78 328.74
  Q 636.23 329.21 634.36 329.11
  A 1.23 1.23 0.0 0 0 633.16 329.89
  L 632.90 330.54
  A 0.72 0.72 0.0 0 1 631.75 330.81
  C 628.84 328.16 625.23 330.59 623.13 325.87
  Q 619.67 318.11 618.99 310.85
  A 12.17 11.60 -56.9 0 0 618.62 308.85
  Q 615.93 299.23 615.02 290.56
  A 0.80 0.80 0.0 0 0 614.12 289.86
  L 592.85 292.85
  A 1.21 1.20 1.7 0 0 591.84 293.80
  Q 589.49 305.41 584.74 318.52
  Q 583.71 321.36 581.26 322.65
  A 0.55 0.54 -24.5 0 1 580.50 322.37
  Q 579.59 320.09 577.36 319.45
  A 2.01 2.00 8.0 0 1 575.91 317.54
  C 575.90 314.30 576.38 309.41 577.16 305.69
  Q 579.66 293.78 579.91 292.95
  A 1.18 1.17 19.3 0 0 579.21 291.51
  Q 574.65 289.73 574.08 286.64
  A 1.77 1.77 0.0 0 1 575.58 284.56
  L 581.01 283.79
  A 2.09 2.09 0.0 0 0 582.76 282.18
  C 585.12 271.71 587.64 260.52 591.40 248.65
  C 593.81 241.06 596.62 230.75 601.00 220.70
  A 1.66 1.21 -36.1 0 0 601.09 220.42
  L 602.12 215.56
  A 2.95 2.95 0.0 0 1 605.13 213.21
  L 609.45 213.39
  A 2.69 2.63 57.5 0 1 610.43 213.62
  L 618.12 217.16
  A 4.80 4.69 85.8 0 1 620.17 218.97
  C 624.66 226.19 626.74 233.85 628.58 242.64
  Q 629.70 248.01 632.15 265.20
  Q 632.41 267.05 632.98 269.89
  C 633.53 272.66 632.11 280.29 637.42 279.35
  A 0.59 0.59 0.0 0 1 637.73 280.49
  L 637.02 280.75
  A 0.93 0.90 2.1 0 0 636.50 281.22
  L 634.50 285.38
  A 1.96 1.95 -42.4 0 0 634.43 286.93
  C 634.74 287.78 635.36 288.53 635.34 289.57
  C 635.29 292.36 636.87 295.78 636.24 299.44
  A 1.76 1.76 0.0 0 1 635.89 300.25
  Q 633.98 302.73 633.95 304.60
  Q 633.89 308.86 635.07 312.72
  A 0.62 0.62 0.0 0 0 636.19 312.85
  Q 637.43 310.74 636.98 307.90
  A 0.20 0.19 -64.5 0 1 637.34 307.77
  Z
  M 606.95 238.87
  A 0.38 0.38 0.0 0 0 606.20 238.82
  L 594.79 280.41
  A 0.38 0.38 0.0 0 0 595.21 280.89
  L 612.13 278.51
  A 0.38 0.38 0.0 0 0 612.46 278.08
  L 606.95 238.87
  Z
  M 631.8987 272.9178
  A 1.23 1.23 0.0 0 0 630.5643 271.8020
  L 630.3650 271.8198
  A 1.23 1.23 0.0 0 0 629.2493 273.1543
  L 629.5213 276.2022
  A 1.23 1.23 0.0 0 0 630.8557 277.3180
  L 631.0550 277.3002
  A 1.23 1.23 0.0 0 0 632.1707 275.9657
  L 631.8987 272.9178
  Z
  M 633.94 289.82
  L 633.70 287.70
  L 633.66 287.25
  A 0.42 0.42 0.0 0 0 632.95 286.98
  Q 630.35 289.55 632.27 291.92
  A 1.76 1.76 0.0 0 1 632.60 293.44
  Q 632.12 295.30 633.07 296.98
  A 0.43 0.43 0.0 0 0 633.84 296.92
  L 634.73 294.63
  A 0.55 0.48 54.1 0 0 634.76 294.33
  L 633.94 289.82
  Z"
/>
<path fill="#e0b786" d="
  M 544.44 309.49
  Q 544.48 309.04 544.70 308.77
  Q 546.21 307.66 546.07 305.23
  C 545.98 303.70 545.06 302.28 545.16 300.88
  Q 545.47 296.62 546.04 293.28
  Q 546.46 290.90 545.56 280.59
  A 4.43 4.43 0.0 0 1 545.56 279.75
  Q 545.93 276.38 545.49 273.75
  C 544.79 269.58 545.36 266.92 545.12 262.42
  C 544.96 259.37 545.40 256.14 545.77 252.88
  A 0.34 0.33 5.8 0 0 545.46 252.51
  L 545.21 252.49
  A 0.09 0.09 0.0 0 0 545.12 252.57
  L 544.63 258.90
  A 0.21 0.21 0.0 0 1 544.22 258.93
  Q 543.35 255.31 543.55 251.24
  C 544.27 236.80 545.05 229.48 544.85 223.81
  Q 544.76 221.09 545.66 218.80
  A 1.30 1.28 -4.2 0 1 546.26 218.12
  C 550.85 215.71 557.60 218.53 562.17 221.39
  Q 564.19 222.65 564.72 224.35
  C 566.08 228.69 566.32 233.83 565.90 238.74
  Q 564.90 250.62 563.96 264.13
  Q 562.75 281.54 563.11 290.75
  Q 563.56 302.20 563.79 312.00
  Q 563.94 318.11 562.94 321.53
  A 0.59 0.59 0.0 0 1 562.16 321.91
  L 561.20 321.53
  A 2.20 2.17 46.5 0 0 559.75 321.48
  Q 557.15 322.31 556.22 322.15
  A 0.80 0.79 4.9 0 0 555.29 322.93
  L 555.29 326.43
  A 0.29 0.29 0.0 0 1 554.85 326.68
  L 551.71 324.79
  A 1.21 1.16 -86.0 0 1 551.20 324.18
  L 550.36 321.88
  A 1.19 1.19 0.0 0 0 548.05 322.29
  L 548.05 323.72
  A 0.41 0.41 0.0 0 1 547.31 323.96
  C 544.08 319.46 544.95 314.63 544.44 309.49
  Z
  M 549.7588 272.2541
  A 1.39 0.54 -53.4 0 0 548.4965 273.0480
  A 1.39 0.54 -53.4 0 0 548.1012 274.4859
  A 1.39 0.54 -53.4 0 0 549.3635 273.6920
  A 1.39 0.54 -53.4 0 0 549.7588 272.2541
  Z
  M 560.2958 277.8303
  A 0.77 0.26 -76.8 0 0 559.8669 278.5206
  A 0.77 0.26 -76.8 0 0 559.9442 279.3297
  A 0.77 0.26 -76.8 0 0 560.3731 278.6394
  A 0.77 0.26 -76.8 0 0 560.2958 277.8303
  Z
  M 548.9857 278.1101
  A 0.96 0.51 -41.8 0 0 547.9301 278.3698
  A 0.96 0.51 -41.8 0 0 547.5543 279.3899
  A 0.96 0.51 -41.8 0 0 548.6099 279.1302
  A 0.96 0.51 -41.8 0 0 548.9857 278.1101
  Z
  M 548.1893 281.4113
  A 0.88 0.48 -99.2 0 0 547.8562 282.3567
  A 0.88 0.48 -99.2 0 0 548.4707 283.1487
  A 0.88 0.48 -99.2 0 0 548.8038 282.2033
  A 0.88 0.48 -99.2 0 0 548.1893 281.4113
  Z
  M 560.2369 283.9198
  A 0.44 0.44 0.0 0 0 559.7554 283.5257
  L 559.6161 283.5396
  A 0.44 0.44 0.0 0 0 559.2220 284.0211
  L 559.6431 288.2402
  A 0.44 0.44 0.0 0 0 560.1246 288.6343
  L 560.2639 288.6204
  A 0.44 0.44 0.0 0 0 560.6580 288.1389
  L 560.2369 283.9198
  Z
  M 560.1636 292.7028
  A 5.02 0.46 -91.9 0 0 559.8703 297.7353
  A 5.02 0.46 -91.9 0 0 560.4964 302.7372
  A 5.02 0.46 -91.9 0 0 560.7897 297.7047
  A 5.02 0.46 -91.9 0 0 560.1636 292.7028
  Z
  M 549.8652 292.9482
  A 1.17 0.47 -77.4 0 0 549.1513 293.9875
  A 1.17 0.47 -77.4 0 0 549.3548 295.2318
  A 1.17 0.47 -77.4 0 0 550.0687 294.1925
  A 1.17 0.47 -77.4 0 0 549.8652 292.9482
  Z"
/>
<path fill="#000000" d="
  M 431.44 240.23
  Q 431.42 239.93 432.38 239.01
  A 0.25 0.24 80.4 0 1 432.77 239.29
  Q 432.49 239.90 431.98 240.42
  A 0.31 0.31 0.0 0 1 431.44 240.23
  Z"
/>
<path fill="#000000" d="
  M 437.07 243.45
  Q 436.98 242.88 437.11 242.29
  L 437.07 243.45
  Z"
/>
<path fill="#1c7174" d="
  M 523.99 276.22
  L 523.66 274.98
  Q 524.41 274.83 523.99 276.22
  Z"
/>
<path fill="#e0b786" d="
  M 543.02 276.74
  Q 543.47 279.49 542.76 281.30
  A 0.11 0.11 0.0 0 1 542.54 281.26
  L 542.54 276.78
  A 0.24 0.24 0.0 0 1 543.02 276.74
  Z"
/>
<ellipse fill="#e0b786" cx="0.00" cy="0.00" transform="translate(542.65,287.18) rotate(-91.9)" rx="1.47" ry="0.32"/>
<path fill="#1c7174" d="
  M 633.70 287.70
  L 633.94 289.82
  Q 633.00 288.51 633.70 287.70
  Z"
/>
<path fill="#1c7174" d="
  M 544.62 301.73
  L 544.59 302.71
  Q 544.48 303.32 544.06 303.69
  A 0.35 0.34 49.1 0 1 543.57 303.65
  Q 543.46 303.53 543.38 303.29
  L 543.39 301.79
  L 543.62 300.33
  A 0.19 0.19 0.0 0 1 543.99 300.28
  L 544.62 301.73
  Z"
/>
<path fill="#8c2035" d="
  M 543.39 301.79
  L 543.38 303.29
  L 543.39 301.79
  Z"
/>
<path fill="#8c2035" d="
  M 544.59 302.71
  L 544.62 301.73
  L 544.59 302.71
  Z"
/>
<path fill="#cc561b" d="
  M 637.72 304.79
  Q 637.99 305.59 637.34 306.44
  A 0.49 0.49 0.0 0 1 636.57 306.44
  Q 636.38 306.20 636.09 305.32
  Q 635.80 304.45 635.81 304.14
  A 0.49 0.49 0.0 0 1 636.44 303.68
  Q 637.46 303.98 637.72 304.79
  Z"
/>
<ellipse fill="#000000" cx="0.00" cy="0.00" transform="translate(436.89,305.49) rotate(-163.1)" rx="0.73" ry="0.27"/>
<path fill="#1c7174" d="
  M 544.70 308.77
  Q 544.48 309.04 544.44 309.49
  Q 544.15 308.64 544.70 308.77
  Z"
/>
<path fill="#000000" d="
  M 437.89 310.50
  L 437.97 315.19
  L 437.89 310.50
  Z"
/>
<path fill="#000000" d="
  M 449.62 326.63
  Q 449.12 327.97 448.45 326.55
  Q 448.95 326.47 449.62 326.63
  Z"
/>
<path fill="#000000" d="
  M 487.79 358.78
  A 0.48 0.48 0.0 0 1 487.31 358.30
  L 487.31 357.89
  A 0.43 0.43 0.0 0 1 487.60 357.48
  L 490.38 356.47
  A 2.02 1.99 -89.2 0 0 491.56 355.31
  L 498.51 337.58
  A 1.08 1.08 0.0 0 1 500.55 337.64
  Q 503.30 346.14 505.06 353.45
  C 505.65 355.91 506.40 356.21 508.50 357.40
  A 0.72 0.72 0.0 0 1 508.15 358.74
  L 501.66 358.74
  A 0.76 0.76 0.0 0 1 501.20 357.37
  Q 504.55 354.84 501.92 351.50
  A 1.38 1.36 -18.9 0 0 500.84 350.98
  L 496.77 350.98
  A 2.21 2.20 18.1 0 0 494.99 351.88
  Q 493.84 353.48 493.24 355.69
  A 0.81 0.80 -63.0 0 0 493.51 356.53
  L 495.24 357.89
  A 0.50 0.50 0.0 0 1 494.93 358.78
  L 487.79 358.78
  Z
  M 497.43 349.10
  L 499.98 349.21
  A 0.72 0.72 0.0 0 0 500.74 348.52
  L 500.74 348.36
  A 5.74 2.00 -87.5 0 0 498.99 342.54
  A 5.74 2.00 -87.5 0 0 496.75 348.19
  L 496.74 348.35
  A 0.72 0.72 0.0 0 0 497.43 349.10
  Z"
/>
<path fill="#000000" d="
  M 536.59 350.76
  Q 536.28 351.36 535.11 352.39
  A 1.37 1.35 -23.1 0 0 534.65 353.51
  C 534.77 355.51 534.57 357.34 532.63 358.28
  Q 528.38 360.33 524.26 358.79
  C 511.12 353.91 517.35 334.23 531.66 338.06
  C 534.41 338.79 536.37 340.90 534.75 343.76
  A 0.60 0.60 0.0 0 1 533.64 343.58
  Q 532.61 338.25 526.53 339.19
  C 516.17 340.79 519.20 361.03 530.07 357.51
  Q 532.93 356.58 532.14 352.90
  A 1.08 1.07 -85.4 0 0 531.48 352.12
  L 529.88 351.49
  A 0.72 0.72 0.0 0 1 530.14 350.10
  L 536.19 350.10
  A 0.45 0.45 0.0 0 1 536.59 350.76
  Z"
/>
<path fill="#000000" d="
  M 448.74 338.48
  L 447.45 340.37
  A 1.44 1.42 52.3 0 0 447.29 341.68
  L 451.33 352.78
  A 0.83 0.83 0.0 0 0 452.83 352.92
  Q 454.54 350.00 456.59 344.21
  C 457.39 341.94 458.35 340.69 456.08 338.99
  A 0.78 0.78 0.0 0 1 456.78 337.62
  Q 458.92 338.30 461.74 337.82
  A 0.63 0.63 0.0 0 1 462.21 338.95
  L 459.87 340.64
  A 1.17 1.15 83.7 0 0 459.45 341.17
  L 452.39 359.22
  A 0.73 0.73 0.0 0 1 451.03 359.20
  L 444.58 341.47
  A 1.71 1.63 -82.6 0 0 444.03 340.72
  L 442.39 339.43
  A 0.93 0.93 0.0 0 1 443.19 337.79
  Q 445.23 338.30 448.21 337.69
  A 0.51 0.51 0.0 0 1 448.74 338.48
  Z"
/>
<path fill="#000000" d="
  M 476.00 348.25
  Q 476.01 353.90 476.03 354.88
  A 2.20 2.18 22.3 0 0 476.67 356.39
  L 478.00 357.72
  A 0.61 0.60 -22.4 0 1 477.57 358.75
  L 471.79 358.75
  A 0.49 0.48 22.2 0 1 471.44 357.93
  L 473.32 356.06
  A 1.55 1.54 67.8 0 0 473.77 354.97
  Q 473.77 354.08 473.77 348.41
  Q 473.76 342.76 473.74 341.78
  A 2.20 2.18 22.3 0 0 473.10 340.27
  L 471.77 338.94
  A 0.61 0.60 -22.4 0 1 472.20 337.91
  L 477.98 337.91
  A 0.49 0.48 22.2 0 1 478.33 338.73
  L 476.45 340.60
  A 1.55 1.54 67.8 0 0 476.00 341.69
  Q 475.99 342.58 476.00 348.25
  Z"
/>
<path fill="#000000" d="
  M 564.22 350.76
  Q 563.91 351.36 562.74 352.39
  A 1.37 1.35 -23.1 0 0 562.28 353.51
  C 562.40 355.51 562.20 357.34 560.26 358.28
  Q 556.01 360.33 551.89 358.79
  C 538.76 353.90 544.99 334.23 559.30 338.07
  C 562.05 338.80 564.01 340.91 562.39 343.77
  A 0.60 0.60 0.0 0 1 561.28 343.59
  Q 560.25 338.26 554.17 339.19
  C 543.81 340.79 546.83 361.02 557.70 357.51
  Q 560.56 356.58 559.77 352.90
  A 1.08 1.07 -85.4 0 0 559.11 352.12
  L 557.51 351.49
  A 0.72 0.72 0.0 0 1 557.77 350.10
  L 563.82 350.10
  A 0.45 0.45 0.0 0 1 564.22 350.76
  Z"
/>
<path fill="#000000" d="
  M 576.91 338.06
  Q 578.41 338.07 579.71 337.92
  A 0.56 0.56 0.0 0 1 580.17 338.87
  L 578.69 340.38
  A 1.94 1.94 0.0 0 0 578.17 341.47
  Q 578.14 341.70 578.11 348.34
  Q 578.08 354.99 578.11 355.22
  A 1.94 1.94 0.0 0 0 578.62 356.32
  L 580.09 357.84
  A 0.56 0.56 0.0 0 1 579.62 358.78
  Q 578.32 358.63 576.83 358.62
  Q 575.33 358.61 574.03 358.76
  A 0.56 0.56 0.0 0 1 573.57 357.81
  L 575.05 356.30
  A 1.94 1.94 0.0 0 0 575.57 355.21
  Q 575.60 354.98 575.63 348.33
  Q 575.66 341.68 575.63 341.46
  A 1.94 1.94 0.0 0 0 575.12 340.36
  L 573.65 338.84
  A 0.56 0.56 0.0 0 1 574.12 337.89
  Q 575.42 338.05 576.91 338.06
  Z"
/>
</svg>
